P3
# CREATOR: GIMP PNM Filter Version 1.1
24 24
255
202
189
182
181
165
157
177
161
155
185
177
174
198
192
192
196
194
195
198
196
197
199
197
197
201
198
197
207
204
204
219
218
224
213
216
216
195
194
196
159
160
167
152
154
159
151
153
158
148
151
157
149
151
156
147
148
156
149
150
159
148
148
156
149
147
153
145
145
150
165
164
167
147
122
110
107
77
63
91
76
69
110
103
102
119
113
114
120
115
118
121
119
123
121
121
123
126
123
127
144
145
146
181
185
189
174
177
181
158
159
162
127
122
128
97
98
110
94
100
106
69
75
89
51
59
88
46
52
78
40
44
69
38
39
57
37
37
49
33
31
39
71
69
76
116
110
110
66
61
61
61
63
66
73
75
78
72
73
78
77
81
84
77
79
84
76
80
83
81
99
97
88
96
97
93
97
104
93
102
104
84
90
93
96
106
106
98
98
105
101
107
113
90
98
109
68
76
99
67
76
97
65
74
107
42
51
93
39
48
88
38
44
76
77
79
97
116
113
114
64
64
63
65
63
67
67
66
69
69
68
71
70
71
75
77
90
89
92
169
156
89
202
179
84
171
152
106
167
157
116
204
188
133
195
187
127
183
174
102
144
136
56
63
68
52
58
64
52
55
63
56
60
66
79
87
105
64
74
107
37
44
79
29
39
81
69
77
114
150
145
143
114
106
103
119
111
111
125
115
115
127
117
116
129
120
118
128
128
125
82
213
185
46
239
204
47
246
210
80
251
224
63
247
217
66
248
219
127
254
238
161
245
233
158
175
160
146
135
125
146
137
129
135
129
124
79
84
98
61
67
89
60
61
78
32
31
53
70
70
90
113
113
114
55
58
60
74
71
70
83
78
79
78
73
71
83
87
85
108
161
150
37
214
174
6
212
160
9
226
175
5
226
175
13
225
175
50
236
200
78
246
218
108
247
226
164
233
221
160
166
154
156
146
136
143
138
133
73
76
84
48
51
66
53
55
73
37
36
47
67
67
75
112
111
111
44
48
48
70
66
65
78
72
72
68
65
60
73
88
81
77
233
205
12
209
160
6
180
125
14
207
157
7
207
154
18
214
167
39
227
187
27
224
178
40
227
185
114
248
228
182
230
220
148
157
143
131
139
130
73
75
83
45
44
56
47
48
66
45
43
55
65
68
81
160
153
149
121
114
110
136
125
121
130
122
117
115
107
105
121
171
161
21
225
178
13
162
115
5
147
99
0
167
114
7
184
132
5
194
142
3
181
126
3
168
111
12
192
141
48
228
186
160
248
237
163
199
187
113
137
123
76
78
83
50
52
61
51
52
68
49
44
53
70
69
77
132
127
124
103
93
92
60
62
66
51
54
60
50
62
66
88
209
188
7
194
142
17
116
80
77
137
123
142
179
180
25
137
100
4
136
89
13
128
88
8
135
89
5
161
111
18
195
146
74
239
207
149
229
215
113
138
125
79
78
83
60
61
70
52
53
71
49
45
54
91
87
91
128
124
123
96
92
92
64
68
74
67
75
80
46
60
64
88
240
215
16
160
112
33
106
82
174
182
190
175
177
182
121
155
154
55
117
100
143
168
170
73
139
121
7
128
85
4
156
105
12
195
144
66
228
193
140
169
161
79
80
85
67
68
80
54
54
66
51
48
55
96
91
95
143
147
148
94
102
105
80
86
91
59
65
71
59
87
86
39
226
184
10
126
83
68
121
109
146
146
151
93
96
102
149
158
165
154
167
174
183
183
188
160
175
177
31
123
93
11
144
98
7
164
113
25
202
153
138
189
180
81
81
89
67
71
87
56
53
59
52
50
56
93
87
93
118
117
118
64
63
64
32
34
40
30
33
40
73
118
111
11
188
136
9
109
73
78
123
113
86
86
92
63
64
69
127
133
145
143
146
154
88
82
89
139
149
155
70
135
118
12
121
82
11
149
100
21
182
131
117
200
184
85
84
95
70
74
90
57
57
60
53
52
57
86
81
89
133
130
127
84
80
77
37
37
41
38
43
47
62
104
100
19
180
130
9
108
69
49
107
92
91
93
98
79
80
86
116
131
141
124
122
130
82
82
92
99
104
109
73
135
120
13
121
81
13
136
91
20
171
122
101
216
194
99
109
124
71
72
83
58
55
59
54
53
57
86
84
91
152
143
135
116
103
91
115
101
90
105
100
89
111
132
118
16
172
123
5
108
69
13
91
63
98
128
128
93
117
122
55
93
87
116
126
131
93
90
91
120
129
131
43
118
95
14
121
82
15
138
94
14
161
113
75
203
177
86
95
112
57
59
72
51
51
65
56
58
71
92
94
107
144
136
130
108
95
87
114
101
90
122
109
97
132
151
137
16
173
122
5
119
77
9
97
66
15
87
62
28
89
69
18
69
51
47
91
83
82
105
111
68
113
106
16
99
67
14
118
81
14
130
88
12
151
103
68
188
157
89
88
91
56
61
71
56
52
63
57
51
59
90
83
87
119
124
120
64
69
63
60
63
59
63
65
62
101
153
139
14
181
127
3
132
83
9
102
67
11
87
58
15
79
57
19
76
56
18
78
58
22
80
61
19
80
60
16
97
67
14
114
78
12
124
85
13
144
99
69
166
140
87
75
76
65
52
52
79
64
58
77
60
54
108
92
88
242
248
254
233
243
251
227
237
245
217
231
238
199
224
224
43
198
152
5
146
94
6
101
66
13
84
57
17
78
57
16
73
54
17
77
56
20
83
60
18
85
61
18
100
71
15
114
78
13
117
79
17
147
103
91
156
141
92
86
84
95
82
77
113
93
85
113
89
79
137
117
109
239
245
250
234
241
248
236
243
250
235
244
250
232
244
249
165
234
219
27
170
122
7
101
66
13
82
55
16
78
55
17
73
52
20
74
55
18
76
56
19
83
60
17
96
67
16
108
76
10
121
83
37
169
128
213
247
244
245
252
255
237
246
253
231
241
246
223
232
235
224
231
232
245
250
252
241
248
252
239
247
251
239
248
251
232
250
250
196
247
239
50
175
135
9
100
64
13
75
52
15
73
52
19
70
52
19
75
56
19
76
56
22
78
57
20
89
65
19
107
75
15
128
88
90
196
167
250
253
255
240
248
251
239
247
251
239
247
252
239
246
252
242
248
253
243
249
252
239
247
250
239
248
250
237
247
249
218
237
238
160
203
194
67
150
120
17
102
68
15
73
50
17
65
48
21
64
50
21
68
51
21
73
54
23
79
59
20
87
63
25
116
83
67
174
141
200
232
229
246
252
255
241
249
252
241
249
252
240
249
251
239
247
251
242
248
252
244
249
252
239
247
250
238
246
250
230
240
244
211
234
232
163
219
203
96
166
137
66
125
99
43
87
68
35
75
60
31
69
55
26
69
54
28
72
56
31
81
64
38
97
75
43
119
89
65
148
117
139
177
166
208
222
227
234
244
249
239
248
252
241
249
252
241
249
252
243
250
252
246
251
255
241
249
253
238
246
251
231
240
245
215
229
233
183
211
207
148
190
179
126
154
146
113
135
128
106
126
119
101
120
113
98
118
110
99
120
113
100
124
116
108
133
124
112
144
134
121
160
149
150
189
181
194
208
213
218
229
238
235
243
249
240
247
251
241
249
252
244
250
253
237
238
236
232
234
234
233
236
236
232
237
238
230
234
236
220
234
233
203
223
222
192
206
208
183
195
199
173
186
189
165
178
181
158
172
175
156
172
174
159
176
179
167
186
190
177
199
203
189
212
215
205
229
231
226
238
242
231
240
246
237
245
250
241
249
252
244
250
253
246
251
254
226
223
218
218
213
206
220
216
209
221
217
212
224
219
213
223
219
214
222
218
213
219
215
211
218
214
209
218
214
209
218
215
212
220
217
214
222
219
219
224
223
223
227
229
229
231
234
235
235
239
240
239
245
246
244
248
249
245
250
252
247
251
253
249
252
254
249
252
254
250
253
254
